<?xml version="1.0" standalone="no"?>
<!DOCTYPE svg PUBLIC "-//W3C//DTD SVG 20010904//EN"
 "http://www.w3.org/TR/2001/REC-SVG-20010904/DTD/svg10.dtd">
<svg version="1.0" xmlns="http://www.w3.org/2000/svg"
 width="960.000000pt" height="960.000000pt" viewBox="0 0 960.000000 960.000000"
 preserveAspectRatio="xMidYMid meet">
<metadata>
Created by potrace 1.11, written by Peter Selinger 2001-2013
</metadata>
<g transform="translate(0.000000,960.000000) scale(0.100000,-0.100000)"
fill="#000000" stroke="none">
<path d="M1527 9047 c-15 -28 -94 -180 -174 -337 -80 -157 -184 -358 -229
-447 -46 -90 -84 -164 -84 -166 0 -2 46 -4 103 -4 56 0 352 -1 657 -2 l555 -1
395 -241 c217 -133 458 -280 535 -327 476 -291 579 -352 590 -352 17 0 49 50
38 60 -8 8 -197 159 -554 440 -341 269 -531 422 -527 423 1 1 125 1 274 -1
l271 -3 119 -122 c65 -67 219 -225 342 -350 l223 -228 28 20 c54 39 54 41 -7
121 -138 180 -403 542 -400 545 2 1 78 5 170 7 141 4 170 3 180 -10 7 -8 76
-126 153 -262 l140 -247 50 20 c28 11 51 21 52 22 2 1 -38 108 -87 239 -50
131 -90 241 -90 244 0 4 60 6 134 4 l133 -3 49 -220 c45 -206 50 -220 69 -215
11 3 30 6 43 6 l22 0 0 215 0 215 110 0 110 0 0 -215 0 -215 23 0 c12 0 31 -3
43 -6 20 -5 23 6 69 218 l49 223 133 0 c73 0 133 -3 133 -6 0 -4 -40 -114 -90
-245 -49 -131 -88 -239 -87 -240 1 -1 24 -11 51 -23 37 -16 51 -18 57 -9 4 6
72 125 150 264 l142 252 171 -5 c94 -3 173 -7 175 -9 1 -1 -57 -83 -130 -181
-73 -98 -177 -238 -231 -310 l-98 -133 32 -30 c18 -16 36 -30 40 -30 6 0 273
269 567 572 l124 127 268 3 c148 2 269 0 269 -4 0 -7 -202 -168 -740 -593
-173 -136 -321 -254 -328 -260 -12 -11 -11 -17 3 -39 10 -14 24 -26 31 -26 8
0 72 35 142 79 70 43 262 161 427 261 165 100 350 213 410 250 61 38 206 127
324 199 l215 131 355 0 c196 1 492 1 659 1 166 0 302 2 302 5 0 6 -150 300
-320 629 -37 72 -95 185 -130 253 l-62 122 -3256 0 -3257 0 -28 -53z m329
-302 c18 -93 39 -197 46 -230 l14 -60 45 230 45 230 94 0 c57 0 95 -4 95 -10
0 -5 -38 -162 -85 -347 l-85 -338 -111 0 -112 0 -82 332 c-46 183 -85 340 -88
350 -4 17 3 19 94 16 l98 -3 32 -170z m634 -175 l0 -350 -95 0 -95 0 0 350 0
350 95 0 95 0 0 -350z m320 75 l0 -275 108 0 c60 0 111 -2 113 -4 2 -2 3 -36
1 -75 l-4 -71 -204 2 -205 3 1 343 c0 188 0 344 0 347 0 3 43 5 95 5 l95 0 0
-275z m505 -3 l0 -272 113 0 112 0 0 -75 0 -75 -207 2 -208 3 -3 335 c-1 184
0 341 3 348 3 9 29 12 97 10 l93 -3 0 -273z m772 -57 c45 -181 83 -338 83
-347 0 -16 -11 -18 -94 -18 l-93 0 -15 68 -14 67 -69 0 -70 0 -10 -65 -10 -65
-84 -3 c-46 -2 -90 -1 -97 2 -8 3 12 100 75 351 l86 346 114 -3 115 -3 83
-330z m929 -5 c46 -184 83 -341 84 -347 0 -10 -25 -13 -94 -13 l-95 0 -11 58
c-17 88 -12 83 -87 80 l-67 -3 -9 -45 c-17 -99 -7 -90 -107 -90 -49 0 -91 4
-94 8 -2 4 34 162 81 350 l86 343 115 -3 114 -3 84 -335z m495 140 c39 -163
48 -190 55 -165 4 17 26 104 48 195 l41 165 133 3 132 3 -2 -348 -3 -348 -89
0 -90 0 2 65 c1 36 4 144 7 240 l4 175 -60 -243 -61 -243 -71 3 -72 3 -27 115
c-83 347 -97 397 -93 335 3 -33 7 -149 10 -257 l6 -198 -90 0 -91 0 0 350 0
351 132 -3 132 -3 47 -195z m969 125 l0 -75 -120 0 -120 0 0 -60 0 -60 120 0
120 0 0 -70 0 -70 -120 0 -120 0 0 -70 0 -69 128 -3 127 -3 0 -70 0 -70 -220
0 -220 0 -3 348 -2 347 215 0 215 0 0 -75z m320 -200 l0 -274 113 -3 112 -3 0
-70 0 -70 -207 -3 -208 -2 0 350 0 350 95 0 95 0 0 -275z m520 -75 l0 -350
-95 0 -95 0 0 350 0 350 95 0 95 0 0 -350z m586 10 c46 -184 83 -341 84 -347
0 -10 -25 -13 -94 -13 l-95 0 -11 58 c-7 31 -14 63 -16 70 -3 9 -23 12 -71 10
l-68 -3 -10 -65 -11 -65 -98 -3 c-90 -3 -97 -1 -93 15 3 10 42 168 88 351 l82
333 115 -3 114 -3 84 -335z"/>
<path d="M3865 8647 c-10 -61 -20 -123 -22 -137 -4 -24 -2 -25 41 -26 35 0 46
3 46 15 0 22 -39 253 -43 257 -2 2 -12 -47 -22 -109z"/>
<path d="M4797 8665 c-9 -55 -20 -118 -23 -141 l-6 -40 47 -1 47 -1 -7 52 c-4
28 -14 92 -24 141 l-17 90 -17 -100z"/>
<path d="M7687 8662 c-9 -53 -20 -115 -23 -138 l-6 -41 46 1 c31 1 46 5 46 14
0 16 -41 256 -44 259 -1 2 -10 -41 -19 -95z"/>
<path d="M135 8375 c18 -36 41 -95 51 -131 15 -49 22 -63 34 -58 32 12 144 26
191 22 27 -1 49 -2 49 -1 0 1 -13 15 -29 31 -27 27 -61 112 -61 154 0 15 -9
18 -57 18 -56 0 -155 13 -193 25 -16 5 -13 -5 15 -60z"/>
<path d="M9430 8425 c-30 -7 -88 -14 -127 -14 l-73 -1 0 -29 c0 -59 -50 -154
-89 -168 -9 -4 -32 -18 -51 -33 -19 -15 -86 -60 -148 -100 -99 -64 -114 -71
-130 -59 -15 13 -16 12 -4 -2 11 -15 -1 -26 -100 -92 -157 -105 -752 -497
-995 -657 l-203 -133 0 -2668 0 -2669 -289 -2 -290 -3 212 -218 212 -217 290
2 290 3 3 2888 2 2887 -24 12 c-14 6 -27 17 -30 25 -8 19 21 74 37 70 7 -1 12
10 12 28 0 22 -5 31 -20 33 -30 6 -40 19 -27 35 7 8 9 16 6 20 -4 4 267 189
484 330 l42 27 -2 -3272 -3 -3273 -22 -73 c-27 -93 -68 -160 -113 -183 -30
-16 -58 -19 -205 -19 -93 0 -273 -5 -398 -10 -251 -11 -318 -4 -420 43 -80 37
-154 103 -553 499 l-370 368 -1545 0 -1544 0 -280 -281 c-433 -434 -576 -566
-654 -602 -78 -37 -88 -37 -631 -23 -313 7 -349 10 -388 28 -51 24 -88 81
-117 183 -20 69 -20 99 -23 3277 l-2 3207 -26 -10 c-34 -12 -54 3 -54 42 0 22
6 30 24 35 31 7 46 -1 46 -26 0 -10 3 -21 8 -23 4 -3 5 23 4 56 -4 73 -23 101
-62 92 -53 -14 -73 -52 -49 -96 7 -15 7 -24 -2 -35 -17 -21 -66 -18 -79 5 -14
26 -4 47 28 60 15 6 35 25 44 41 10 18 25 30 38 30 18 0 19 2 8 20 -16 26 -22
25 -52 -5 -21 -21 -30 -23 -73 -18 -47 5 -98 37 -87 55 17 28 110 44 143 24 6
-4 11 -4 11 1 0 15 -197 133 -212 128 -8 -3 -21 1 -28 10 -10 12 -10 18 1 32
11 13 11 15 1 9 -9 -5 -58 22 -144 79 -71 47 -132 84 -135 82 -2 -3 36 -31 86
-64 50 -32 91 -64 91 -70 0 -7 5 -14 10 -14 6 -1 15 -2 21 -3 7 0 17 -8 22
-18 14 -21 -7 -48 -35 -48 -19 0 -19 -32 -15 -3482 3 -2671 7 -3496 17 -3538
55 -249 262 -430 570 -496 100 -21 921 -20 1028 2 94 19 238 86 312 145 31 24
204 194 384 376 l329 333 1466 0 1467 0 344 -346 c352 -353 412 -404 542 -463
124 -57 172 -61 666 -61 440 0 451 0 543 24 281 71 457 226 526 461 17 57 18
255 21 3549 l2 3489 -20 14 c-11 8 -20 21 -20 28 0 8 68 60 151 115 137 91
156 100 198 100 48 0 145 -14 172 -25 12 -4 19 8 33 52 10 32 33 91 51 131 19
39 31 71 27 71 -4 -1 -32 -7 -62 -14z m-605 -455 c-3 -5 -11 -10 -16 -10 -6 0
-7 5 -4 10 3 6 11 10 16 10 6 0 7 -4 4 -10z m-7992 -60 c-39 -23 -60 -57 -44
-73 20 -20 13 -57 -14 -69 -22 -10 -29 -9 -46 9 -26 25 -19 55 16 71 13 6 32
23 41 38 10 14 27 30 38 34 37 15 42 10 9 -10z m7982 -22 c24 -24 50 -49 59
-56 23 -18 20 -39 -8 -57 -19 -13 -29 -14 -45 -5 -24 12 -26 28 -10 64 14 29
3 48 -46 78 -22 13 -25 18 -12 18 11 0 38 -19 62 -42z m-113 -59 l41 -21 -24
-23 c-35 -35 -124 -38 -151 -5 -18 23 -18 23 13 44 42 29 72 30 121 5z m-126
-104 c24 -25 47 -45 53 -45 15 0 22 -30 11 -51 -14 -24 -68 -26 -77 -3 -3 10
-1 31 5 47 13 35 6 49 -43 79 -22 13 -25 18 -12 18 11 0 38 -20 63 -45z m-62
-71 c20 -8 21 -57 2 -73 -11 -10 -23 -8 -53 8 -21 11 -33 20 -27 21 6 0 16 11
22 25 12 25 27 30 56 19z m-629 -304 c-3 -5 -11 -10 -16 -10 -6 0 -7 5 -4 10
3 6 11 10 16 10 6 0 7 -4 4 -10z m-27 -46 c18 -8 34 -20 38 -25 3 -6 -7 -4
-22 5 -63 34 -75 50 -16 20z m-52 -62 c14 -31 15 -46 6 -104 -5 -38 -18 -81
-27 -95 l-18 -26 -15 29 c-8 16 -28 43 -44 61 -22 22 -32 44 -34 72 -3 39 -1
43 43 75 26 19 52 32 59 29 7 -2 20 -21 30 -41z m-3777 -5547 c30 -15 41 -33
41 -66 0 -15 -7 -19 -35 -19 -29 0 -37 5 -45 26 -11 29 -43 30 -48 2 -2 -12
12 -27 44 -45 70 -41 84 -58 84 -100 -1 -42 -13 -64 -47 -81 -47 -26 -142 -5
-157 33 -3 9 -6 28 -6 41 0 23 3 25 38 22 29 -2 38 -8 40 -25 6 -40 52 -41 52
0 0 16 -13 29 -44 46 -56 29 -74 49 -82 89 -5 26 -1 36 24 62 24 24 39 30 72
30 22 0 54 -7 69 -15z m249 1 c4 -4 23 -70 43 -147 l35 -139 -42 0 c-36 0 -43
3 -48 25 -5 20 -13 25 -36 25 -23 0 -31 -5 -36 -25 -5 -21 -12 -25 -45 -25
-21 0 -39 3 -39 8 1 28 71 276 79 281 14 9 79 6 89 -3z m597 -23 c0 -24 -4
-28 -32 -31 l-33 -3 0 -115 0 -114 -40 0 -40 0 0 114 0 115 -32 3 c-27 2 -34
8 -36 30 -4 32 2 34 122 31 l91 -2 0 -28z m219 -116 c20 -76 36 -140 36 -143
0 -2 -18 -4 -40 -4 -34 0 -41 4 -46 25 -5 21 -12 25 -40 25 -30 0 -34 -3 -34
-25 0 -23 -4 -25 -44 -25 l-44 0 37 143 36 142 45 5 c25 3 48 3 52 0 3 -3 22
-67 42 -143z m406 116 l0 -33 -55 0 c-52 0 -55 -1 -55 -25 0 -23 3 -25 50 -25
49 0 50 -1 50 -30 0 -29 -1 -30 -50 -30 l-50 0 0 -60 0 -60 -40 0 -40 0 0 145
0 144 68 3 c127 6 122 7 122 -29z m248 -2 c-3 -24 -7 -26 -55 -29 -49 -3 -53
-5 -53 -28 0 -22 4 -24 50 -24 49 0 50 -1 50 -30 0 -29 -1 -30 -50 -30 -49 0
-50 -1 -50 -30 0 -30 1 -30 55 -30 54 0 55 0 55 -30 l0 -30 -95 0 -95 0 0 145
0 144 78 3 c104 4 114 1 110 -31z m-1238 -43 c14 -37 27 -68 30 -68 3 0 4 31
2 70 l-4 70 41 0 41 0 0 -145 0 -145 -44 0 -45 0 -30 78 -31 77 2 -78 3 -77
-37 0 -38 0 0 146 0 145 42 -3 43 -3 25 -67z"/>
<path d="M4229 1625 c-4 -5 -10 -31 -13 -57 -7 -44 -6 -48 13 -48 23 0 24 10
13 75 -4 22 -10 36 -13 30z"/>
<path d="M5000 1620 c0 -8 -5 -34 -9 -57 -8 -41 -7 -43 15 -43 21 0 22 3 17
38 -7 45 -21 84 -23 62z"/>
<path d="M8887 8309 c4 -13 8 -18 11 -10 2 7 -1 18 -6 23 -8 8 -9 4 -5 -13z"/>
<path d="M9107 8310 c10 -11 19 -20 21 -20 1 0 -2 9 -8 20 -6 11 -15 20 -20
20 -6 0 -2 -9 7 -20z"/>
<path d="M476 8303 c-6 -14 -5 -15 5 -6 7 7 10 15 7 18 -3 3 -9 -2 -12 -12z"/>
<path d="M776 8283 c-6 -14 -5 -15 5 -6 7 7 10 15 7 18 -3 3 -9 -2 -12 -12z"/>
<path d="M8830 8270 c8 -5 20 -10 25 -10 6 0 3 5 -5 10 -8 5 -19 10 -25 10 -5
0 -3 -5 5 -10z"/>
<path d="M9131 8244 c0 -11 3 -14 6 -6 3 7 2 16 -1 19 -3 4 -6 -2 -5 -13z"/>
<path d="M795 8198 c-13 -28 -14 -30 -1 -13 9 11 20 26 26 33 7 8 7 12 1 12
-6 0 -18 -15 -26 -32z"/>
<path d="M702 8200 c0 -14 2 -19 5 -12 2 6 2 18 0 25 -3 6 -5 1 -5 -13z"/>
<path d="M8740 8205 c-6 -8 -10 -19 -8 -24 1 -6 8 1 15 14 13 28 11 31 -7 10z"/>
<path d="M9040 8213 c0 -6 8 -17 18 -24 16 -13 16 -13 2 6 -8 11 -16 22 -17
24 -2 2 -3 0 -3 -6z"/>
<path d="M547 8203 c-4 -3 -7 -11 -7 -17 0 -6 5 -5 12 2 6 6 9 14 7 17 -3 3
-9 2 -12 -2z"/>
<path d="M609 8183 c-13 -16 -12 -17 4 -4 16 13 21 21 13 21 -2 0 -10 -8 -17
-17z"/>
<path d="M8806 8187 c3 -10 9 -15 12 -12 3 3 0 11 -7 18 -10 9 -11 8 -5 -6z"/>
<path d="M8985 8180 c10 -11 20 -20 23 -20 3 0 -3 9 -13 20 -10 11 -20 20 -23
20 -3 0 3 -9 13 -20z"/>
<path d="M810 8160 c0 -5 5 -10 11 -10 5 0 7 5 4 10 -3 6 -8 10 -11 10 -2 0
-4 -4 -4 -10z"/>
<path d="M721 8132 c-17 -31 -13 -40 5 -14 9 13 14 26 11 29 -3 2 -10 -4 -16
-15z"/>
<path d="M8871 8130 c14 -31 19 -36 19 -24 0 6 -7 19 -16 30 -14 18 -14 18 -3
-6z"/>
<path d="M476 8107 c3 -10 9 -15 12 -12 3 3 0 11 -7 18 -10 9 -11 8 -5 -6z"/>
<path d="M972 8070 c0 -14 2 -19 5 -12 2 6 2 18 0 25 -3 6 -5 1 -5 -13z"/>
<path d="M8623 8075 c-3 -9 -3 -18 -1 -21 3 -3 8 4 11 16 6 23 -1 27 -10 5z"/>
<path d="M8732 8064 c10 -10 20 -16 22 -13 3 3 -5 11 -17 18 -21 13 -21 12 -5
-5z"/>
<path d="M368 8063 c6 -2 18 -2 25 0 6 3 1 5 -13 5 -14 0 -19 -2 -12 -5z"/>
<path d="M438 8063 c7 -3 16 -2 19 1 4 3 -2 6 -13 5 -11 0 -14 -3 -6 -6z"/>
<path d="M555 8060 c-3 -6 1 -7 9 -4 18 7 21 14 7 14 -6 0 -13 -4 -16 -10z"/>
<path d="M9021 8066 c2 -2 15 -9 29 -15 24 -11 24 -11 6 3 -16 13 -49 24 -35
12z"/>
<path d="M8680 8040 c-9 -6 -10 -10 -3 -10 6 0 15 5 18 10 8 12 4 12 -15 0z"/>
<path d="M8720 8031 c0 -6 4 -13 10 -16 6 -3 7 1 4 9 -7 18 -14 21 -14 7z"/>
<path d="M1166 8004 c-22 -22 -20 -41 7 -54 21 -11 21 -11 2 5 -27 22 -8 51
31 48 22 -2 25 0 14 7 -22 14 -36 12 -54 -6z"/>
<path d="M846 7993 c-6 -14 -5 -15 5 -6 7 7 10 15 7 18 -3 3 -9 -2 -12 -12z"/>
<path d="M8969 7991 c7 -12 9 -25 7 -30 -3 -5 1 -11 8 -14 12 -5 13 -1 4 24
-5 16 -14 32 -20 35 -6 4 -5 -3 1 -15z"/>
<path d="M459 7973 c-13 -16 -12 -17 4 -4 16 13 21 21 13 21 -2 0 -10 -8 -17
-17z"/>
<path d="M8631 7969 c-1 -14 6 -34 15 -45 8 -10 12 -13 8 -5 -4 8 -11 28 -15
45 -6 29 -7 29 -8 5z"/>
<path d="M9128 7978 c10 -13 11 -22 2 -40 -11 -22 -10 -22 4 -4 20 25 20 30
-1 47 -16 13 -17 12 -5 -3z"/>
<path d="M610 7960 c-6 -11 -8 -20 -6 -20 3 0 10 9 16 20 6 11 8 20 6 20 -3 0
-10 -9 -16 -20z"/>
<path d="M8550 7956 c0 -2 8 -10 18 -17 15 -13 16 -12 3 4 -13 16 -21 21 -21
13z"/>
<path d="M956 7933 c-6 -14 -5 -15 5 -6 7 7 10 15 7 18 -3 3 -9 -2 -12 -12z"/>
<path d="M1126 7933 c-6 -14 -5 -15 5 -6 7 7 10 15 7 18 -3 3 -9 -2 -12 -12z"/>
<path d="M9070 7935 c7 -8 17 -15 22 -15 5 0 3 7 -6 15 -8 8 -18 15 -22 15 -3
0 -1 -7 6 -15z"/>
<path d="M8321 7890 c14 -31 19 -36 19 -24 0 6 -7 19 -16 30 -14 18 -14 18 -3
-6z"/>
<path d="M1311 7895 c0 -5 6 -19 14 -29 8 -11 15 -15 15 -10 0 6 -7 19 -15 30
-8 10 -14 15 -14 9z"/>
<path d="M8451 7884 c0 -11 3 -14 6 -6 3 7 2 16 -1 19 -3 4 -6 -2 -5 -13z"/>
<path d="M1894 7823 c71 -95 125 -182 176 -288 l49 -101 73 -23 c40 -13 224
-72 409 -132 l336 -109 210 2 210 3 -276 129 c-152 72 -489 230 -749 353 -260
123 -475 223 -477 223 -3 0 15 -26 39 -57z"/>
<path d="M7254 7641 c-275 -130 -611 -288 -746 -351 l-245 -115 210 -3 211 -2
366 119 c201 66 385 125 409 132 42 12 45 17 81 93 44 95 103 195 172 289 28
37 49 69 47 71 -2 2 -229 -103 -505 -233z"/>
<path d="M8380 7873 c0 -16 31 -95 36 -90 2 2 -5 25 -16 53 -10 27 -19 43 -20
37z"/>
<path d="M1187 7800 c-3 -11 -3 -20 -1 -20 2 0 8 9 14 20 6 11 7 20 2 20 -6 0
-12 -9 -15 -20z"/>
<path d="M1090 7786 c0 -2 63 -45 140 -96 77 -51 137 -97 133 -103 -3 -6 -1
-7 5 -3 6 4 64 -28 129 -71 198 -130 208 -136 194 -119 -12 15 -194 138 -477
322 -107 69 -124 79 -124 70z"/>
<path d="M1464 7754 c-18 -14 -18 -14 6 -3 31 14 36 19 24 19 -6 0 -19 -7 -30
-16z"/>
<path d="M8192 7740 c0 -19 2 -27 5 -17 2 9 2 25 0 35 -3 9 -5 1 -5 -18z"/>
<path d="M1401 7744 c0 -11 3 -14 6 -6 3 7 2 16 -1 19 -3 4 -6 -2 -5 -13z"/>
<path d="M8137 7739 c4 -13 8 -18 11 -10 2 7 -1 18 -6 23 -8 8 -9 4 -5 -13z"/>
<path d="M1422 7620 c0 -19 2 -27 5 -17 2 9 2 25 0 35 -3 9 -5 1 -5 -18z"/>
<path d="M1537 7629 c-4 -15 -2 -18 7 -10 9 7 16 7 25 -2 10 -9 10 -6 0 11
-17 27 -25 28 -32 1z"/>
<path d="M8042 7638 c-7 -7 -12 -16 -12 -21 0 -5 7 -1 16 8 9 9 14 18 12 20
-2 3 -10 -1 -16 -7z"/>
<path d="M1230 7610 c-9 -6 -10 -10 -3 -10 6 0 15 5 18 10 8 12 4 12 -15 0z"/>
<path d="M8357 7609 c7 -7 15 -10 18 -7 3 3 -2 9 -12 12 -14 6 -15 5 -6 -5z"/>
<path d="M7873 7553 c9 -2 17 -9 17 -14 0 -5 5 -9 11 -9 8 0 8 5 -1 15 -7 8
-20 14 -29 14 -13 -1 -13 -2 2 -6z"/>
<path d="M1751 7545 c1 -19 18 -51 18 -35 0 8 -4 22 -9 30 -5 8 -9 11 -9 5z"/>
<path d="M7835 7529 c-4 -6 -5 -12 -2 -15 2 -3 7 2 10 11 7 17 1 20 -8 4z"/>
<path d="M7720 7496 c0 -2 8 -10 18 -17 15 -13 16 -12 3 4 -13 16 -21 21 -21
13z"/>
<path d="M1629 7473 c-13 -16 -12 -17 4 -4 9 7 17 15 17 17 0 8 -8 3 -21 -13z"/>
<path d="M7950 7486 c0 -2 8 -10 18 -17 15 -13 16 -12 3 4 -13 16 -21 21 -21
13z"/>
<path d="M1409 7453 c-13 -16 -12 -17 4 -4 9 7 17 15 17 17 0 8 -8 3 -21 -13z"/>
<path d="M1439 7453 c-13 -16 -12 -17 4 -4 9 7 17 15 17 17 0 8 -8 3 -21 -13z"/>
<path d="M8170 7466 c0 -2 8 -10 18 -17 15 -13 16 -12 3 4 -13 16 -21 21 -21
13z"/>
<path d="M1555 7420 c-3 -6 1 -7 9 -4 18 7 21 14 7 14 -6 0 -13 -4 -16 -10z"/>
<path d="M8030 7420 c0 -5 5 -10 11 -10 5 0 7 5 4 10 -3 6 -8 10 -11 10 -2 0
-4 -4 -4 -10z"/>
<path d="M2000 7405 c-19 -22 -8 -25 13 -3 9 10 13 18 8 18 -5 0 -14 -7 -21
-15z"/>
<path d="M2046 7407 c3 -10 9 -15 12 -12 3 3 0 11 -7 18 -10 9 -11 8 -5 -6z"/>
<path d="M8130 7405 c14 -8 32 -14 40 -14 8 0 0 6 -19 14 -42 19 -54 19 -21 0z"/>
<path d="M1417 7399 c7 -7 15 -10 18 -7 3 3 -2 9 -12 12 -14 6 -15 5 -6 -5z"/>
<path d="M1506 7394 c-6 -15 -4 -15 11 -3 10 7 20 15 22 16 2 2 -3 3 -11 3 -9
0 -19 -7 -22 -16z"/>
<path d="M1616 7391 c-12 -5 -15 -10 -9 -14 6 -4 16 0 23 8 14 17 13 17 -14 6z"/>
<path d="M1725 7364 c15 -15 15 -18 -1 -35 -9 -10 -26 -19 -38 -21 -17 -2 -22
-11 -24 -43 l-3 -40 39 43 c22 23 48 42 58 42 14 0 10 -6 -14 -20 -41 -25 -48
-42 -32 -80 14 -35 1 -60 -31 -60 -19 0 -19 -70 -19 -2895 l0 -2895 294 0 294
0 211 218 212 217 -291 3 -290 2 0 2669 0 2668 -183 122 c-174 115 -218 141
-182 105z m130 -94 c-3 -5 0 -7 8 -4 21 8 67 -52 67 -86 0 -18 -13 -44 -36
-71 -20 -24 -40 -54 -45 -67 -18 -46 -47 7 -64 117 -10 59 17 121 52 121 13 0
21 -4 18 -10z"/>
<path d="M1460 7335 c-11 -13 -10 -14 4 -9 9 3 16 10 16 15 0 13 -6 11 -20 -6z"/>
<path d="M1582 7334 c10 -10 20 -16 22 -13 3 3 -5 11 -17 18 -21 13 -21 12 -5
-5z"/>
<path d="M8009 7333 c-13 -16 -12 -17 4 -4 9 7 17 15 17 17 0 8 -8 3 -21 -13z"/>
<path d="M8168 7312 c9 -10 19 -17 21 -16 6 5 -20 34 -30 34 -5 0 -1 -8 9 -18z"/>
<path d="M1485 7291 c-3 -5 -2 -12 3 -15 5 -3 9 1 9 9 0 17 -3 19 -12 6z"/>
<path d="M8106 7275 c4 -8 11 -15 16 -15 6 0 5 6 -2 15 -7 8 -14 15 -16 15 -2
0 -1 -7 2 -15z"/>
<path d="M1635 7210 c-3 -6 1 -7 9 -4 18 7 21 14 7 14 -6 0 -13 -4 -16 -10z"/>
<path d="M7945 7170 c-3 -5 -1 -10 4 -10 6 0 11 5 11 10 0 6 -2 10 -4 10 -3 0
-8 -4 -11 -10z"/>
<path d="M2180 5835 l0 -1295 1295 0 1295 0 0 1295 0 1295 -1295 0 -1295 0 0
-1295z m365 820 c24 -41 17 -51 -22 -32 -38 20 -52 39 -102 135 l-42 83 73
-76 c40 -42 82 -92 93 -110z m1975 84 c-41 -79 -55 -98 -86 -112 -20 -10 -39
-16 -41 -13 -11 11 31 73 99 145 40 43 74 77 75 76 1 0 -20 -44 -47 -96z
m-2099 -28 c31 -52 17 -46 -36 16 -46 53 -47 55 -17 37 18 -10 42 -34 53 -53z
m2143 14 c-51 -60 -67 -67 -35 -15 16 26 65 70 79 70 2 0 -18 -25 -44 -55z
m-1979 -22 c76 -115 95 -153 95 -193 0 -37 -2 -39 -22 -31 -19 6 -32 34 -68
144 -25 76 -45 137 -44 137 0 0 18 -26 39 -57z m1777 -80 c-40 -119 -50 -138
-69 -141 -20 -3 -23 1 -23 28 0 17 7 45 16 63 19 37 114 187 119 187 2 0 -18
-62 -43 -137z m-1895 2 c104 -52 133 -78 133 -115 0 -18 -46 -10 -76 13 -37
26 -179 157 -172 157 3 0 55 -25 115 -55z m2058 -17 c-94 -87 -123 -108 -152
-108 -29 0 -29 19 -2 54 16 20 205 124 228 126 3 0 -31 -33 -74 -72z m-1778
-75 c32 -73 42 -163 20 -181 -13 -11 -18 -9 -31 10 -9 12 -16 36 -17 53 0 26
-2 27 -9 10 -6 -13 -9 13 -9 77 -1 53 -4 105 -7 115 -13 37 27 -26 53 -84z
m1502 -38 c-3 -71 -6 -114 -8 -95 l-3 35 -8 -34 c-4 -18 -15 -40 -23 -49 -14
-14 -17 -13 -28 12 -10 21 -10 40 -1 83 10 50 69 192 75 182 1 -2 -1 -62 -4
-134z m-1389 -94 c23 -74 26 -149 6 -177 -19 -25 -34 -11 -46 47 l-9 44 2 -47
c1 -25 -2 -44 -7 -41 -5 4 -5 47 -1 102 5 53 8 116 8 140 -1 43 0 44 13 20 8
-13 23 -53 34 -88z m1278 87 c-1 -13 2 -63 6 -112 6 -63 5 -86 -3 -82 -7 5
-11 -3 -11 -21 0 -16 -7 -38 -15 -49 -15 -19 -15 -19 -30 0 -27 36 -17 121 27
234 22 57 29 64 26 30z m-1588 -8 c76 -9 137 -26 127 -36 -3 -3 -14 -1 -25 5
-12 6 -27 11 -34 11 -7 -1 4 -10 25 -21 24 -12 37 -27 37 -39 0 -32 -64 -26
-125 10 -59 35 -130 96 -100 86 11 -4 54 -11 95 -16z m1924 -14 c-60 -53 -129
-88 -166 -84 -51 5 -49 34 4 59 41 19 19 22 -26 4 -13 -6 -17 -5 -13 2 9 14
86 33 139 34 24 0 52 4 63 9 38 16 38 10 -1 -24z m-1518 -142 c33 -100 39
-213 11 -241 -18 -17 -19 -17 -33 1 -8 11 -14 37 -14 58 0 22 -5 38 -11 38 -8
0 -10 -17 -6 -52 4 -44 3 -48 -5 -25 -7 21 -5 60 7 144 9 64 14 133 11 152 -9
52 7 21 40 -75z m1080 79 c-3 -16 2 -85 11 -155 12 -92 14 -133 6 -150 -8 -18
-9 -12 -5 31 3 39 2 52 -7 47 -6 -4 -11 -24 -11 -45 0 -49 -23 -72 -48 -47
-28 28 -21 135 17 249 31 93 50 128 37 70z m-1329 -25 c-3 -8 -6 -5 -6 6 -1
11 2 17 5 13 3 -3 4 -12 1 -19z m-82 -45 c36 -3 65 -10 65 -14 0 -5 18 -18 40
-29 43 -22 51 -43 21 -59 -27 -15 -73 3 -147 55 -66 46 -108 87 -66 65 12 -6
51 -14 87 -18z m1755 -23 c-74 -64 -155 -98 -184 -77 -23 17 -12 42 24 57 16
7 31 18 34 26 3 9 22 14 53 15 26 1 59 5 73 9 45 15 45 10 0 -30z m-1624 -5
c25 -19 14 -19 -22 0 -16 8 -22 15 -13 15 8 0 24 -7 35 -15z m1460 0 c-36 -19
-47 -19 -22 0 11 8 27 15 35 15 9 0 3 -7 -13 -15z m-1145 -170 c26 -93 25
-175 -1 -206 -20 -24 -20 -24 -35 -5 -8 11 -16 42 -16 70 -1 44 -2 47 -9 21
l-8 -30 -1 30 c0 17 6 66 14 110 9 44 13 96 10 115 l-5 35 16 -35 c8 -19 24
-66 35 -105z m855 105 c-3 -17 4 -82 15 -146 11 -64 18 -122 16 -128 -2 -6 -7
9 -12 34 l-8 45 -6 -57 c-7 -69 -23 -90 -49 -65 -29 29 -23 153 13 260 30 88
42 112 31 57z m216 -12 c-6 -6 -7 0 -4 19 5 21 7 23 10 9 2 -10 0 -22 -6 -28z
m-1436 -38 c58 0 146 -18 159 -32 7 -8 5 -9 -10 -4 -11 4 -33 10 -50 12 -27 5
-26 4 10 -14 49 -23 67 -44 59 -66 -9 -23 -66 -21 -117 5 -34 17 -167 116
-167 125 0 1 17 -4 38 -12 20 -7 56 -13 78 -14z m1609 -15 c-67 -59 -154 -105
-200 -105 -34 0 -36 2 -33 28 2 21 14 33 48 51 39 20 41 22 15 18 -16 -3 -39
-9 -50 -13 -15 -5 -17 -4 -10 4 13 14 101 32 159 33 22 0 57 6 76 13 19 8 37
14 40 14 3 1 -17 -19 -45 -43z m-1155 -152 c41 -131 36 -273 -10 -273 -23 0
-30 19 -31 83 -1 41 -3 47 -9 27 l-8 -25 -1 25 c0 14 6 54 14 90 8 36 14 82
15 103 0 20 2 37 4 37 2 0 14 -30 26 -67z m681 -100 c12 -62 19 -118 17 -125
-3 -7 -9 12 -14 42 l-8 55 -3 -50 c-5 -76 -11 -95 -32 -95 -48 0 -52 138 -9
273 19 59 24 66 26 42 1 -17 12 -80 23 -142z m-984 108 c46 -5 92 -15 104 -21
33 -18 16 -22 -24 -5 -57 24 -67 17 -15 -10 67 -35 78 -85 19 -85 -42 0 -122
45 -187 105 l-59 54 40 -13 c22 -8 77 -19 122 -25z m1338 -18 c-60 -56 -143
-103 -180 -103 -62 0 -55 49 13 85 52 26 42 34 -14 10 -19 -8 -32 -10 -29 -5
9 14 64 29 146 39 42 5 85 14 95 20 36 20 29 10 -31 -46z m-912 -303 c2 -59
-2 -82 -16 -104 -16 -25 -21 -26 -33 -14 -26 26 -36 129 -19 200 8 34 15 81
16 103 2 74 50 -96 52 -185z m461 47 c9 -38 15 -89 14 -115 l-1 -47 -7 55 c-4
34 -7 43 -8 24 -2 -39 -21 -94 -33 -94 -5 0 -16 12 -26 26 -23 36 -20 143 9
246 l22 83 7 -55 c4 -30 14 -86 23 -123z m-864 133 c25 -5 70 -14 101 -20 31
-6 65 -17 75 -25 16 -13 13 -13 -18 0 -58 23 -68 17 -17 -10 50 -26 66 -50 48
-71 -29 -35 -112 0 -205 87 -37 34 -58 59 -48 55 10 -4 39 -11 64 -16z m1204
-41 c-89 -83 -175 -120 -202 -86 -16 21 2 49 49 73 49 26 38 32 -16 10 -19 -8
-35 -13 -35 -10 0 12 76 35 147 45 43 6 85 15 93 20 36 21 25 5 -36 -52z
m-977 -81 c-3 -8 -6 -5 -6 6 -1 11 2 17 5 13 3 -3 4 -12 1 -19z m-102 -43 c66
-9 153 -34 160 -46 8 -12 4 -12 -38 6 -52 22 -58 18 -13 -8 45 -26 62 -48 53
-71 -17 -44 -126 5 -217 99 -46 48 -50 55 -25 42 17 -8 53 -18 80 -22z m366
-104 c10 -49 9 -60 -16 -127 -15 -41 -31 -71 -36 -68 -5 3 -9 33 -10 67 0 44
-3 56 -9 42 -16 -37 -11 8 10 86 11 41 20 90 20 109 l1 35 14 -45 c8 -25 20
-69 26 -99z m275 -12 c14 -64 24 -129 21 -145 -3 -24 -4 -22 -6 11 -4 68 -19
87 -18 23 2 -86 -15 -92 -43 -16 -13 35 -24 77 -24 94 0 40 38 194 42 168 1
-10 14 -71 28 -135z m373 114 c-96 -111 -228 -169 -237 -106 -3 18 7 29 44 53
53 33 52 38 -3 15 -20 -8 -38 -14 -40 -11 -9 9 68 35 137 46 41 7 86 18 100
26 36 19 36 18 -1 -23z m-822 -90 c-2 -16 -4 -5 -4 22 0 28 2 40 4 28 2 -13 2
-35 0 -50z m-73 -74 c49 -10 100 -26 113 -34 32 -21 29 -27 -4 -9 -46 23 -61
16 -18 -9 25 -14 41 -31 43 -46 3 -20 0 -22 -25 -17 -15 3 -45 8 -67 12 -30 5
-54 22 -105 71 -36 36 -57 62 -46 58 11 -4 60 -15 109 -26z m766 -33 c-59 -57
-71 -64 -128 -75 -35 -7 -66 -10 -69 -7 -12 12 12 49 43 63 19 9 34 20 34 25
0 5 -19 -1 -42 -12 -41 -20 -42 -20 -20 -1 12 11 48 25 80 31 31 6 77 17 102
25 25 7 50 13 55 14 6 0 -19 -28 -55 -63z m-473 -116 c-2 -41 -9 -85 -16 -98
-12 -23 -13 -23 -33 -6 -14 13 -19 28 -16 51 2 17 0 29 -4 27 -4 -3 -8 -13 -9
-22 0 -9 -3 -12 -5 -5 -3 6 8 45 25 85 16 40 33 87 37 103 8 30 8 29 17 -15 4
-25 6 -79 4 -120z m169 48 c34 -89 42 -115 24 -88 -7 11 -10 8 -10 -16 0 -18
-8 -38 -19 -48 -18 -17 -20 -17 -29 1 -18 32 -25 111 -17 191 4 42 10 70 13
62 2 -8 20 -54 38 -102z m-299 5 c-3 -10 -5 -2 -5 17 0 19 2 27 5 18 2 -10 2
-26 0 -35z m-90 -38 c45 -7 90 -18 100 -25 11 -7 12 -10 3 -7 -58 17 -63 16
-27 -3 23 -13 37 -28 37 -40 0 -17 -7 -20 -43 -20 -23 0 -54 8 -67 17 -41 27
-124 107 -104 99 11 -4 56 -14 101 -21z m636 -11 c-68 -64 -107 -86 -149 -82
-54 4 -59 33 -10 53 40 17 49 30 14 19 -49 -15 -53 -15 -35 -4 10 7 57 18 104
26 47 7 88 16 91 19 3 3 9 5 14 5 5 0 -8 -16 -29 -36z m-472 -139 c12 -19 24
-35 28 -35 4 0 25 -29 46 -65 21 -36 39 -65 41 -65 1 0 16 24 33 53 17 30 41
65 53 80 13 14 30 35 38 47 13 18 23 21 70 18 l55 -3 -49 -32 c-28 -18 -61
-33 -76 -33 -20 0 -33 -12 -59 -52 -61 -93 -61 -89 8 -214 33 -61 61 -114 61
-118 0 -21 -25 15 -65 93 -73 141 -65 138 -120 35 -59 -111 -75 -137 -81 -132
-2 3 24 56 57 119 69 128 69 124 8 217 -26 40 -39 52 -59 52 -24 0 -120 52
-120 65 0 3 25 5 55 5 53 0 57 -2 76 -35z m194 -5 c3 -5 1 -10 -4 -10 -6 0
-11 5 -11 10 0 6 2 10 4 10 3 0 8 -4 11 -10z"/>
<path d="M3305 5280 c-4 -6 -4 -10 -1 -10 2 0 11 -3 20 -6 9 -3 16 -2 16 4 0
14 -28 23 -35 12z"/>
<path d="M3610 5270 c0 -13 11 -13 30 0 12 8 11 10 -7 10 -13 0 -23 -4 -23
-10z"/>
<path d="M4850 5835 l0 -1295 1295 0 1295 0 0 1295 0 1295 -1295 0 -1295 0 0
-1295z m1610 1119 c0 -3 -18 -35 -40 -72 -47 -77 -64 -131 -55 -173 7 -32 54
-76 91 -85 30 -8 142 26 226 68 l65 33 -1 -70 c-1 -38 3 -89 7 -112 l9 -43
-50 0 c-38 0 -70 -11 -151 -50 -56 -27 -129 -59 -163 -70 -69 -23 -173 -28
-233 -11 -56 15 -150 73 -212 132 -47 45 -178 119 -210 119 -7 0 -13 5 -13 10
0 6 10 10 23 10 12 0 48 13 81 29 63 32 88 30 131 -8 55 -50 102 -46 131 11
37 73 133 182 203 230 55 39 161 73 161 52z m-766 -169 c5 -14 -2 -45 -10 -45
-2 0 -13 5 -23 12 -15 9 -17 16 -10 30 12 22 35 24 43 3z m-131 -9 c20 -15 13
-40 -17 -65 -11 -10 -17 -8 -30 11 -35 50 0 90 47 54z m22 -181 c0 -22 -31
-33 -48 -16 -7 7 -6 15 3 26 17 21 45 15 45 -10z"/>
<path d="M2180 3165 l0 -1295 1295 0 1295 0 0 1295 0 1295 -1295 0 -1295 0 0
-1295z m1260 814 c23 -27 41 -52 39 -53 -28 -24 -705 -486 -712 -486 -5 0
-163 217 -169 232 -3 6 268 207 404 299 47 32 62 38 77 29 31 -16 169 -11 241
10 36 10 68 18 71 19 3 1 25 -22 49 -50z m861 -103 c-78 -80 -87 -133 -25
-156 43 -17 54 -12 128 60 47 45 81 70 95 70 22 0 23 -3 16 -46 -15 -100 -67
-203 -118 -235 -25 -15 -51 -19 -114 -19 l-82 0 -68 -62 c-120 -110 -568 -569
-577 -591 -5 -12 -12 -75 -15 -139 -9 -153 -12 -158 -162 -220 -63 -27 -115
-48 -116 -48 -2 0 -3 12 -3 26 0 15 15 50 33 78 52 78 58 106 37 153 -29 64
-43 62 -125 -18 l-74 -71 -20 33 c-25 41 -25 34 -2 100 43 127 82 175 130 166
39 -8 147 10 176 29 12 8 76 70 141 137 66 67 211 215 324 329 l204 208 -17
47 c-22 62 -22 110 2 149 21 34 56 53 186 100 l90 32 3 -30 c3 -26 -5 -40 -47
-82z"/>
<path d="M4857 4453 c-4 -3 -7 -586 -7 -1295 l0 -1288 1295 0 1295 0 0 1295 0
1295 -1288 0 c-709 0 -1292 -3 -1295 -7z m1219 -277 c42 -42 46 -87 10 -111
-28 -19 -55 -10 -80 27 -16 22 -22 99 -9 111 15 16 47 5 79 -27z m204 20 c6
-8 10 -30 8 -48 -3 -33 -3 -33 45 -36 44 -3 47 -5 41 -25 -10 -32 -23 -46 -67
-69 -32 -16 -45 -18 -63 -9 -13 6 -24 17 -24 25 0 8 -4 18 -10 21 -11 7 -63
-71 -58 -88 2 -7 21 -42 42 -79 31 -53 45 -67 68 -70 18 -3 34 2 45 14 9 10
29 18 44 18 15 0 41 8 58 18 24 13 35 14 48 6 25 -16 28 -42 7 -65 -22 -25
-30 -24 -56 6 -40 46 -104 25 -126 -41 -8 -24 -6 -35 7 -52 14 -19 21 -20 56
-12 55 13 85 12 85 -2 0 -21 -43 -58 -67 -58 -13 0 -23 -3 -23 -6 0 -4 23 -47
52 -96 l51 -89 13 29 c9 21 28 37 68 55 31 14 59 33 62 42 3 8 10 15 14 15 16
0 18 -45 5 -113 -13 -71 -30 -96 -81 -125 -15 -8 -5 -30 72 -165 85 -149 104
-175 104 -142 0 8 16 27 36 42 19 15 42 40 49 55 24 44 84 14 71 -37 -7 -27
-33 -33 -67 -14 -27 14 -61 -8 -79 -50 -11 -27 -10 -34 10 -66 22 -35 40 -46
40 -22 0 6 18 28 39 49 l39 36 6 -29 c7 -38 -9 -80 -35 -86 -19 -5 -19 -6 -2
-18 10 -7 30 -15 46 -19 15 -3 27 -13 27 -21 0 -18 14 -19 40 -3 40 25 79 -31
45 -65 -10 -11 -26 -14 -50 -10 -28 4 -35 2 -35 -11 0 -9 -7 -16 -15 -16 -17
0 -19 -11 -7 -25 5 -6 23 -37 41 -70 17 -33 26 -52 19 -41 -31 45 -49 61 -54
49 -10 -22 -59 -14 -106 17 l-45 30 -74 -14 c-41 -8 -96 -13 -122 -12 -26 2
-50 -1 -52 -5 -3 -4 -46 -6 -96 -5 -50 1 -92 -1 -95 -5 -2 -3 -47 -6 -99 -5
-53 1 -99 -1 -102 -4 -2 -3 -43 -6 -89 -6 -83 -1 -85 -1 -99 26 -8 15 -11 31
-7 35 4 5 1 5 -6 1 -19 -11 -72 41 -65 63 4 13 3 13 -5 2 -8 -11 -23 -6 -82
28 -39 22 -76 41 -80 41 -5 0 -21 5 -35 10 -27 10 -26 11 54 64 76 51 85 54
139 54 31 -1 62 -5 69 -10 7 -6 19 -5 30 1 11 5 24 6 31 2 6 -4 40 -6 74 -5
35 1 70 -2 79 -7 9 -5 20 -4 26 2 7 7 18 8 29 2 11 -5 47 -8 81 -7 34 2 65 -2
69 -7 4 -6 11 -6 20 2 7 6 22 8 31 4 10 -4 56 -8 103 -10 47 -1 85 -4 85 -5 0
-1 16 -3 35 -5 72 -6 125 -14 141 -20 36 -14 27 18 -34 122 -35 59 -86 146
-113 193 -47 80 -52 85 -86 88 -48 4 -78 -12 -78 -43 0 -13 -3 -30 -6 -39 -9
-23 -50 -20 -68 6 -22 31 -4 58 37 58 18 0 41 7 51 15 11 8 35 15 53 15 31 0
32 1 21 25 -12 26 -23 31 -33 15 -24 -39 -145 25 -145 77 0 20 5 23 39 23 24
0 48 -8 65 -21 31 -24 29 -16 -19 69 l-29 54 -47 -4 c-26 -2 -45 0 -42 5 2 4
20 7 39 7 39 0 42 7 16 41 -10 13 -23 37 -30 52 -11 26 -14 27 -28 13 -18 -19
-15 -19 -78 -2 -41 11 -57 10 -98 -1 -55 -17 -83 -11 -74 13 5 14 4 15 -8 5
-9 -7 -18 -23 -22 -34 -4 -12 -18 -37 -32 -54 l-24 -33 40 0 c23 0 43 -3 45
-7 3 -5 -16 -7 -41 -5 l-47 4 -33 -58 c-35 -61 -36 -72 -4 -55 32 17 92 14 92
-5 0 -59 -110 -120 -148 -82 -9 9 -15 8 -27 -8 -22 -28 -18 -34 19 -34 19 0
37 -3 39 -7 3 -5 -15 -8 -41 -8 -49 0 -45 5 -125 -135 -63 -112 -69 -132 -27
-110 12 6 24 9 26 7 3 -3 -16 -13 -43 -23 -26 -9 -54 -22 -61 -27 -7 -5 -14
-8 -15 -6 -2 2 -11 18 -21 34 l-17 30 24 -29 c25 -29 25 -29 36 -7 7 12 17 18
23 15 7 -4 8 -3 4 5 -4 6 1 23 12 39 22 31 132 220 132 227 0 3 -6 5 -13 5 -7
0 -26 13 -41 29 -30 31 -61 147 -51 189 l6 23 37 -29 c20 -15 51 -34 69 -41
21 -9 35 -24 43 -44 l11 -31 21 34 c32 52 88 151 88 156 0 2 -11 4 -23 4 -13
0 -32 9 -42 20 -21 23 -35 26 -35 6 0 -7 -7 -19 -15 -26 -22 -18 -18 -45 12
-81 16 -18 21 -30 13 -27 -8 2 -24 22 -35 44 -11 21 -24 42 -29 45 -5 4 -6 12
-2 18 4 6 1 9 -7 5 -22 -8 -30 26 -11 47 19 21 49 25 59 9 3 -5 11 -10 16 -10
6 0 7 5 4 10 -8 13 50 13 95 0 45 -13 64 8 55 60 -12 67 -78 90 -125 45 -31
-30 -57 -25 -66 11 -12 46 31 69 70 39 11 -8 34 -15 51 -15 18 0 39 -8 48 -18
11 -12 27 -17 45 -14 23 3 37 17 68 70 21 37 41 71 43 76 2 4 -6 26 -18 47
-12 22 -20 39 -17 39 3 0 12 -13 21 -30 19 -37 28 -38 45 -2 15 29 20 93 8 85
-27 -16 17 61 48 86 31 25 47 26 64 7z m-355 -65 c14 -1 75 -58 75 -70 0 -5
-10 -17 -22 -25 -19 -13 -25 -13 -57 0 -43 17 -81 57 -81 85 0 17 5 19 38 15
20 -3 42 -5 47 -5z m-27 -123 c7 -7 12 -20 12 -30 0 -22 7 -25 80 -33 61 -6
84 -22 74 -49 -6 -15 -15 -17 -55 -14 -38 4 -49 2 -52 -11 -3 -11 -5 -10 -6 4
-2 39 -30 67 -65 64 -40 -4 -56 6 -56 36 0 36 44 57 68 33z m506 0 c-4 -7 -3
-8 5 -4 16 10 41 -12 41 -35 0 -25 -17 -33 -62 -30 -22 1 -38 -3 -38 -9 0 -6
-5 -8 -10 -5 -6 4 -10 3 -9 -2 1 -4 1 -21 0 -38 -1 -22 -4 -26 -11 -15 -6 10
-23 13 -54 11 -35 -2 -48 1 -52 14 -10 26 12 39 84 50 58 9 67 13 70 33 2 12
8 20 13 17 5 -3 6 1 3 9 -4 11 0 16 11 16 10 0 13 -5 9 -12z m104 -300 c18
-18 15 -37 -13 -70 -14 -16 -25 -25 -25 -19 0 6 -9 20 -20 31 -24 24 -25 34
-4 54 18 19 45 21 62 4z m-47 -136 c-6 -11 -18 -22 -26 -26 -12 -4 -10 2 7 23
26 32 35 33 19 3z m-219 -32 c-3 -33 -9 -41 -28 -46 -32 -8 -56 13 -52 45 3
22 9 27 43 32 22 3 40 7 40 8 0 0 -1 -17 -3 -39z m-124 -2 c3 -22 -2 -30 -22
-39 -37 -17 -56 -5 -56 36 0 36 1 36 38 33 32 -3 37 -7 40 -30z m-469 -27 c8
-14 5 -26 -13 -49 l-23 -32 -21 23 c-12 13 -22 30 -22 38 0 38 61 54 79 20z
m1049 7 c19 -19 14 -42 -12 -67 l-24 -22 -21 30 c-18 24 -20 35 -11 51 12 22
49 27 68 8z m-54 -135 c-10 -15 -18 -30 -17 -33 1 -3 -15 -13 -35 -23 l-37
-18 48 44 c26 25 47 51 47 58 0 7 3 9 6 6 4 -4 -2 -19 -12 -34z m-949 -47 c29
-29 29 -29 3 -13 -40 25 -75 21 -103 -10 l-24 -28 26 -27 c15 -16 22 -31 18
-39 -5 -8 -4 -10 3 -5 16 10 16 -46 0 -62 -18 -18 -63 -14 -83 8 -26 29 -33
110 -11 126 12 8 16 19 11 33 -16 52 25 79 69 46 11 -8 29 -15 40 -15 19 0 19
1 -2 23 -12 13 -22 27 -22 31 0 4 10 -3 23 -16 12 -13 36 -36 52 -52z m1045
29 c12 -14 11 -30 -5 -67 -4 -11 -1 -16 11 -15 22 2 28 -22 19 -70 -12 -65
-77 -97 -108 -52 -21 30 0 98 26 82 6 -3 7 -1 3 6 -4 6 -2 18 4 26 9 11 9 18
-4 30 -9 9 -16 21 -16 26 0 5 -8 9 -17 9 -11 1 -5 8 17 20 43 23 54 24 70 5z
m-772 -73 c8 -51 -62 -76 -74 -27 -4 14 -4 29 0 32 3 3 2 11 -4 18 -7 8 2 10
33 6 34 -5 43 -10 45 -29z m-94 -58 c21 -20 20 -48 -1 -65 -15 -12 -16 -12
-10 4 3 9 5 17 4 17 -1 0 -29 -14 -61 -30 -63 -32 -81 -36 -91 -20 -3 5 0 7 8
4 8 -3 31 2 51 10 32 13 36 19 36 50 0 45 34 61 64 30z m584 4 c7 -7 12 -24
12 -38 0 -14 6 -32 13 -39 10 -11 9 -12 -7 -4 -10 6 -27 8 -37 6 -42 -11 -69
55 -31 76 23 14 36 13 50 -1z m-983 -66 c6 -4 19 -20 31 -37 l21 -30 -21 -2
c-12 -1 -33 -4 -48 -8 -23 -6 -28 -4 -34 19 -4 19 -1 33 11 46 20 22 25 23 40
12z m1079 -34 c-14 -6 -28 -7 -38 -1 -12 7 -7 9 21 10 33 1 35 -1 17 -9z m61
-52 c38 -16 45 -40 16 -55 -13 -7 -35 -5 -76 6 l-58 17 27 23 c32 27 44 28 91
9z m-1139 -110 c-9 -14 -21 -26 -26 -26 -14 0 -22 38 -15 71 l7 31 26 -25 c24
-25 25 -27 8 -51z m-102 -114 c18 -14 20 -20 11 -29 -7 -7 -16 -9 -21 -5 -4 4
-4 1 1 -7 4 -8 2 -17 -6 -22 -19 -12 -32 -11 -24 1 3 6 -1 7 -9 4 -20 -8 -30
18 -22 51 8 30 37 33 70 7z m77 -106 c5 3 9 0 9 -7 0 -7 10 -23 22 -36 19 -20
20 -25 8 -33 -23 -15 -70 -12 -76 5 -4 8 -11 12 -16 9 -6 -4 1 12 14 35 12 22
25 36 26 31 2 -6 8 -8 13 -4z m-207 -12 c21 -20 20 -26 -5 -58 l-21 -27 -24
22 c-28 27 -31 54 -6 68 24 15 38 13 56 -5z m1850 0 c22 -22 20 -37 -9 -64
-14 -13 -25 -29 -25 -35 0 -17 -39 -65 -52 -65 -6 0 -1 8 11 18 23 18 46 82
30 82 -5 0 -14 11 -21 25 -20 45 31 75 66 39z m-1822 -157 c8 -3 9 -6 1 -6
-13 -1 -53 46 -53 63 0 6 9 -3 19 -20 11 -18 25 -34 33 -37z m176 46 c-10 -2
-26 -2 -35 0 -10 3 -2 5 17 5 19 0 27 -2 18 -5z m1402 -2 c-20 -4 -42 -11 -50
-15 -8 -4 -6 0 4 8 11 9 34 15 50 15 31 -1 31 -1 -4 -8z m-1670 -42 c33 -37
40 -57 29 -87 -17 -45 -73 -41 -102 7 -17 29 -23 91 -10 104 16 17 56 5 83
-24z m2004 7 c20 -82 -57 -161 -108 -110 -20 19 -20 37 -1 74 30 59 98 81 109
36z m-1614 -1 c17 -20 3 -54 -26 -61 -32 -8 -47 6 -48 46 -1 27 2 30 30 30 17
0 37 -7 44 -15z m1208 -22 c-3 -33 -7 -38 -30 -41 -22 -3 -30 2 -39 22 -15 33
2 56 43 56 28 0 29 -2 26 -37z m196 -28 c15 -27 20 -41 12 -31 -15 19 -16 17
-16 -26 0 -51 -16 -71 -71 -89 -19 -7 -46 -23 -61 -37 -26 -24 -28 -24 -29 -6
-4 60 24 170 41 166 6 -1 9 2 6 6 -8 14 31 45 45 36 8 -5 10 -3 4 6 -6 10 -2
11 19 6 26 -6 26 -5 15 16 -22 43 8 3 35 -47z m-1558 4 c28 -29 44 -77 51
-159 l5 -55 -21 19 c-11 10 -18 23 -14 29 3 5 1 7 -5 4 -13 -9 -93 25 -112 48
-8 10 -14 35 -14 56 1 21 -2 36 -7 33 -5 -3 -1 8 8 24 22 38 72 38 109 1z
m1604 -79 c6 -11 8 -20 6 -20 -3 0 -10 9 -16 20 -6 11 -8 20 -6 20 3 0 10 -9
16 -20z m-1789 -63 c-10 -9 -11 -8 -5 6 3 10 9 15 12 12 3 -3 0 -11 -7 -18z
m1829 -7 c6 -11 8 -20 6 -20 -3 0 -10 9 -16 20 -6 11 -8 20 -6 20 3 0 10 -9
16 -20z m-1907 -130 c-21 -38 -46 -80 -57 -92 -19 -24 -14 -15 56 110 17 28
32 52 35 52 2 0 -13 -31 -34 -70z m1951 54 c3 -8 2 -12 -4 -9 -6 3 -10 10 -10
16 0 14 7 11 14 -7z"/>
<path d="M6101 3893 c-37 -67 -39 -79 -9 -59 29 20 61 20 100 0 l30 -16 -27
44 c-14 24 -31 53 -37 66 -6 12 -15 22 -19 22 -4 0 -21 -26 -38 -57z"/>
<path d="M6092 3824 c-32 -22 -27 -47 13 -66 32 -14 38 -14 70 0 20 10 35 23
35 34 0 22 -37 48 -70 48 -14 0 -36 -7 -48 -16z"/>
<path d="M6150 2799 c0 -5 5 -7 10 -4 6 3 10 8 10 11 0 2 -4 4 -10 4 -5 0 -10
-5 -10 -11z"/>
<path d="M6780 2736 c0 -2 7 -7 16 -10 8 -3 12 -2 9 4 -6 10 -25 14 -25 6z"/>
<path d="M6656 3483 c-6 -14 -5 -15 5 -6 7 7 10 15 7 18 -3 3 -9 -2 -12 -12z"/>
</g>
</svg>
